<?xml version="1.0" encoding="utf-8"?>
<!-- Generator: Adobe Illustrator 27.4.1, SVG Export Plug-In . SVG Version: 6.00 Build 0)  -->
<svg version="1.1" id="Layer_1" xmlns="http://www.w3.org/2000/svg" xmlns:xlink="http://www.w3.org/1999/xlink" x="0px" y="0px"
	 viewBox="0 0 257 36" style="enable-background:new 0 0 257 36;" xml:space="preserve">
<style type="text/css">
	.st0{fill:#FFFFFF;}
	.st1{font-family:'Poppins';}
	.st2{font-size:30.4739px;}
	.st3{fill:#4E73AD;}
	.st4{fill:#FFFAF3;}
</style>
<text transform="matrix(1.0135 0 0 1 51.4194 30.3877)" class="st0 st1 st2">MyWebClass</text>
<path class="st3" d="M36,18c0,2.4-0.5,4.7-1.4,6.9s-2.2,4.2-3.9,5.8c-1.7,1.7-3.7,3-5.8,3.9C22.7,35.5,20.4,36,18,36
	s-4.7-0.5-6.9-1.4s-4.2-2.2-5.8-3.9c-1.7-1.7-3-3.7-3.9-5.8C0.5,22.7,0,20.4,0,18h9c0,1.2,0.2,2.4,0.7,3.4c0.5,1.1,1.1,2.1,2,2.9
	c0.8,0.8,1.8,1.5,2.9,2S16.9,27,18,27s2.4-0.2,3.4-0.7c1.1-0.5,2.1-1.1,2.9-2c0.8-0.8,1.5-1.8,2-2.9S27,19.1,27,18H36z"/>
<path class="st4" d="M0,18c0-2.4,0.5-4.7,1.4-6.9s2.2-4.2,3.9-5.8C7,3.6,9,2.3,11.1,1.4C13.3,0.5,15.6,0,18,0s4.7,0.5,6.9,1.4
	s4.2,2.2,5.8,3.9c1.7,1.7,3,3.7,3.9,5.8c0.9,2.2,1.4,4.5,1.4,6.9h-9c0-1.2-0.2-2.4-0.7-3.4c-0.5-1.1-1.1-2.1-2-2.9
	c-0.8-0.8-1.8-1.5-2.9-2C20.4,9.2,19.2,9,18,9s-2.4,0.2-3.4,0.7c-1.1,0.5-2.1,1.1-2.9,2c-0.8,0.8-1.5,1.8-2,2.9
	C9.2,15.6,9,16.8,9,18H0z"/>
</svg>
