<?xml version="1.0" encoding="utf-8"?>
<!-- Generator: Adobe Illustrator 27.4.1, SVG Export Plug-In . SVG Version: 6.00 Build 0)  -->
<svg version="1.1" id="Layer_1" xmlns="http://www.w3.org/2000/svg" xmlns:xlink="http://www.w3.org/1999/xlink" x="0px" y="0px"
	 viewBox="0 0 257 36" style="enable-background:new 0 0 257 36;" xml:space="preserve">
<style type="text/css">
	.st0{fill:#4E73AD;}
	.st1{font-family:'Century Gothic';}
	.st2{font-size:30.4739px;}
</style>
<g>
	<path class="st0" d="M18.1,0c10,0.1,18,8,18,18.1c0,10-8,18-18,17.9c-10,0-18-8-18-18C0.1,7.9,8.1,0.1,18.1,0z M28.4,16.9
		c0,0.2,0,0.3,0,0.4c0,0.6,0,1.2,0,1.9c0,0.4,0.2,0.7,0.6,0.9c0.4,0.2,0.8,0.1,1-0.2c0.2-0.2,0.3-0.6,0.4-0.9c0-1.1,0-2.3,0-3.4
		c0-0.2,0-0.3,0.1-0.5c0.4-1.2-0.1-2.3-1.2-2.8c-3-1.4-5.9-2.8-8.9-4.1c-1.5-0.7-3.1-0.6-4.7,0.1c-2.9,1.3-5.9,2.7-8.8,4
		c-0.9,0.4-1.3,1.1-1.3,2.1c0,1,0.5,1.6,1.3,2.1c0.6,0.3,1.2,0.6,1.9,0.9C9,17.5,9.2,17.7,9.2,18c0,0.8,0,1.6,0,2.4
		c0,0.9,0,1.8,0.1,2.7c0.5,2.8,3.1,5,5.9,5c1.9,0,3.8,0,5.7,0c0.2,0,0.4,0,0.6,0c3.3-0.5,5.5-3.1,5.5-6.4c0-1.3,0-2.5,0-3.8
		c0-0.1,0-0.3,0.1-0.4C27.5,17.3,27.9,17.1,28.4,16.9z"/>
	<path class="st0" d="M18.1,19.2c-0.6-0.2-1.2-0.3-1.8-0.5c-2.8-1.3-5.6-2.6-8.5-3.9c-0.1-0.1-0.3-0.2-0.3-0.4
		c0-0.1,0.2-0.3,0.3-0.3c2.8-1.3,5.6-2.6,8.4-3.9c1.2-0.5,2.4-0.5,3.5,0c2.8,1.3,5.5,2.6,8.3,3.8c0.1,0,0.2,0,0.2,0.1
		c0.1,0.1,0.3,0.2,0.2,0.3c0,0.1-0.1,0.3-0.3,0.3c-0.7,0.4-1.5,0.7-2.2,1c-2,0.9-4,1.9-6,2.8C19.5,18.9,18.8,19,18.1,19.2z"/>
	<path class="st0" d="M11.1,18.4c1.4,0.6,2.6,1.2,3.8,1.8c1.1,0.6,2.3,0.9,3.6,0.8c0.8-0.1,1.5-0.3,2.2-0.6c1.3-0.6,2.6-1.2,3.9-1.8
		c0.1,0,0.2-0.1,0.3-0.1c0,0.1,0,0.2,0,0.3c0,1.1,0,2.1,0,3.2c0,2.1-1.7,4-3.8,4.1c-2.1,0.1-4.2,0.1-6.3,0c-1.7-0.1-3.3-1.5-3.6-3.3
		C11,21.4,11.1,20,11.1,18.4z"/>
</g>
<text transform="matrix(1.0135 0 0 1 51.4194 30.3877)" class="st1 st2">MyWebClass</text>
</svg>
