<?xml version="1.0" encoding="utf-8"?>
<!-- Generator: Adobe Illustrator 27.4.1, SVG Export Plug-In . SVG Version: 6.00 Build 0)  -->
<svg version="1.1" id="Layer_1" xmlns="http://www.w3.org/2000/svg" xmlns:xlink="http://www.w3.org/1999/xlink" x="0px" y="0px"
	 viewBox="0 0 86 284" style="enable-background:new 0 0 86 284;" xml:space="preserve">
<style type="text/css">
	.st0{opacity:0.2;fill-rule:evenodd;clip-rule:evenodd;fill:#4E73AD;fill-opacity:0.8;}
</style>
<path class="st0" d="M80.1,2.7c1.3-1,2.6-1.9,3.9-2.7l2,4.4c-1.2,0.8-2.4,1.6-3.7,2.6L80.1,2.7z M65.6,15.8c2.3-2.5,4.7-4.8,7-6.9
	l2.6,4c-2.2,2-4.5,4.2-6.7,6.6L65.6,15.8z M53,31c2-2.7,4.1-5.3,6.1-7.8l3.1,3.4c-2,2.4-4,4.9-5.9,7.6L53,31z M41.9,47.5
	c1.8-2.9,3.6-5.7,5.4-8.4l3.4,3c-1.8,2.6-3.5,5.4-5.3,8.2L41.9,47.5z M32.1,65.1c1.5-3.1,3.1-6,4.7-8.9l3.7,2.6
	c-1.6,2.8-3.1,5.7-4.6,8.7L32.1,65.1z M23.6,83.6c1.3-3.2,2.7-6.3,4.1-9.3l3.9,2.2c-1.4,3-2.7,6-4,9.1L23.6,83.6z M16.4,102.6
	c1.1-3.3,2.2-6.5,3.4-9.6l4,1.9c-1.2,3.1-2.3,6.2-3.4,9.4L16.4,102.6z M10.5,122.2c0.9-3.3,1.8-6.6,2.8-9.9l4.2,1.5
	c-1,3.2-1.9,6.4-2.7,9.7L10.5,122.2z M5.9,142.2c0.7-3.4,1.4-6.7,2.1-10l4.3,1.1c-0.7,3.2-1.4,6.5-2.1,9.8L5.9,142.2z M2.6,162.4
	c0.4-3.4,0.9-6.8,1.5-10.1l4.3,0.7c-0.5,3.3-1,6.6-1.4,9.9L2.6,162.4z M0.6,182.9c0.2-3.4,0.5-6.9,0.8-10.2l4.4,0.3
	c-0.3,3.3-0.6,6.7-0.8,10.1L0.6,182.9z M0,203.3c0-3.4,0.1-6.9,0.2-10.2l4.4-0.1c-0.1,3.3-0.2,6.7-0.2,10.1L0,203.3z M0.7,223.6
	c-0.2-3.4-0.4-6.8-0.5-10.2l4.4-0.4c0.1,3.3,0.3,6.6,0.5,10L0.7,223.6z M2.6,243.8c-0.4-3.4-0.8-6.7-1.1-10l4.4-0.8
	c0.3,3.3,0.7,6.5,1.1,9.8L2.6,243.8z M5.8,263.7c-0.6-3.3-1.2-6.6-1.7-9.9l4.4-1.2c0.5,3.2,1.1,6.5,1.7,9.7L5.8,263.7z M10.1,283.3
	c-0.8-3.2-1.6-6.5-2.3-9.7l4.3-1.5c0.7,3.2,1.5,6.4,2.3,9.5L10.1,283.3z"/>
</svg>
